<svg xmlns="http://www.w3.org/2000/svg" xmlns:xlink="http://www.w3.org/1999/xlink" width="200" height="200" viewBox="0 0 200 200">
  <defs>
    <clipPath id="c"><rect x="0" y="0" width="200" height="200" rx="32"/></clipPath>
  </defs>
  <rect width="200" height="200" rx="32" fill="#0b1220"/>
  <g clip-path="url(#c)"><svg x="0" y="0" width="200" height="200" viewBox="0 0 600 400" preserveAspectRatio="xMidYMid slice">
      <path d="M0 0h900v600H0z"/><g id="hkg_a"><path d="M492.936 125.196a27.917 27.917 0 0 0-14.902 41.792 45.171 45.171 0 0 1-20.29 66.204 38.65 38.65 0 0 0-10.816 64.313 68.375 68.375 0 0 1-17.068-93.914 15.81 15.81 0 0 1-1.109-1.047 69.88 69.88 0 0 0 16.755 95.793 90.342 90.342 0 0 1 47.43-173.141" fill="#fff"/><path d="m451.98 181.1-27.565 12.021 29.366 6.476-19.951-22.5 2.915 29.93"/></g><g id="hkg_b"><use xlink:href="#hkg_hkg_a" transform="rotate(72 450 300)"/><use xlink:href="#hkg_hkg_a" transform="rotate(216 450 300)"/></g><use xlink:href="#hkg_hkg_b" transform="rotate(72 450 300)"/>
    </svg></g>
  <rect x="0" y="126" width="200" height="74" fill="rgba(8,12,24,0.8)"/>
  <rect x="0" y="126" width="200" height="2.5" fill="#d4af37"/>
  <text x="100" y="160" text-anchor="middle" font-family="Arial, Helvetica, sans-serif" font-size="30" font-weight="bold" fill="#d4af37">HKG</text>
  <text x="100" y="185" text-anchor="middle" font-family="Arial, Helvetica, sans-serif" font-size="15" font-weight="600" fill="#ffffff">2ª Divisão</text>
</svg>