<svg xmlns="http://www.w3.org/2000/svg" xmlns:xlink="http://www.w3.org/1999/xlink" width="200" height="200" viewBox="0 0 200 200">
  <defs>
    <clipPath id="c"><rect x="0" y="0" width="200" height="200" rx="32"/></clipPath>
  </defs>
  <rect width="200" height="200" rx="32" fill="#0b1220"/>
  <g clip-path="url(#c)"><svg x="0" y="0" width="200" height="200" viewBox="0 0 209 110" preserveAspectRatio="xMidYMid slice">
      <path d="M0 0h209v110H0z" fill="#bf0a30"/><path d="M0 15h209m0 20H0" stroke="#fff" stroke-width="10"/><path d="M0 0h50v55H0z" fill="#002868"/><path d="M0 55h209m0 20H0m0 20h209" stroke="#fff" stroke-width="10"/><g transform="matrix(15 0 0 15 25 25)"><g id="lbr_b"><path id="lbr_a" fill="#fff" transform="rotate(18 3.157 -.5)" d="M0 0v1h.5z"/><use xlink:href="#lbr_lbr_a" transform="scale(-1 1)"/></g><g id="lbr_c"><use xlink:href="#lbr_lbr_b" transform="rotate(72)"/><use xlink:href="#lbr_lbr_b" transform="rotate(216)"/></g><use xlink:href="#lbr_lbr_c" transform="rotate(72)"/></g>
    </svg></g>
  <rect x="0" y="126" width="200" height="74" fill="rgba(8,12,24,0.8)"/>
  <rect x="0" y="126" width="200" height="2.5" fill="#d4af37"/>
  <text x="100" y="160" text-anchor="middle" font-family="Arial, Helvetica, sans-serif" font-size="30" font-weight="bold" fill="#d4af37">LBR</text>
  <text x="100" y="185" text-anchor="middle" font-family="Arial, Helvetica, sans-serif" font-size="15" font-weight="600" fill="#ffffff">1ª Divisão</text>
</svg>