<svg xmlns="http://www.w3.org/2000/svg" xmlns:xlink="http://www.w3.org/1999/xlink" width="200" height="200" viewBox="0 0 200 200">
  <defs>
    <clipPath id="c"><rect x="0" y="0" width="200" height="200" rx="32"/></clipPath>
  </defs>
  <rect width="200" height="200" rx="32" fill="#0b1220"/>
  <g clip-path="url(#c)"><svg x="0" y="0" width="200" height="200" viewBox="0 0 600 400" preserveAspectRatio="xMidYMid slice">
      <path fill="#006A4E" d="M0 0h809.016v500H0z"/><path fill="#FFCE00" d="M0 100h809.016v100H0z"/><path fill="#D21034" d="M0 0h300v300H0z"/><path fill="#FFCE00" d="M0 300h809.016v100H0z"/><path fill="#FFF" d="m184.511 161.213 55.84-40.569h-69.022L150 55l-21.329 65.644H59.649l55.84 40.569-21.329 65.643L150 186.287l55.84 40.569z"/>
    </svg></g>
  <rect x="0" y="126" width="200" height="74" fill="rgba(8,12,24,0.8)"/>
  <rect x="0" y="126" width="200" height="2.5" fill="#d4af37"/>
  <text x="100" y="160" text-anchor="middle" font-family="Arial, Helvetica, sans-serif" font-size="30" font-weight="bold" fill="#d4af37">TGO</text>
  <text x="100" y="185" text-anchor="middle" font-family="Arial, Helvetica, sans-serif" font-size="15" font-weight="600" fill="#ffffff">1ª Divisão</text>
</svg>