<svg xmlns="http://www.w3.org/2000/svg" xmlns:xlink="http://www.w3.org/1999/xlink" width="200" height="200" viewBox="0 0 200 200">
  <defs>
    <clipPath id="c"><rect x="0" y="0" width="200" height="200" rx="32"/></clipPath>
  </defs>
  <rect width="200" height="200" rx="32" fill="#0b1220"/>
  <g clip-path="url(#c)"><svg x="0" y="0" width="200" height="200" viewBox="0 0 180 120" preserveAspectRatio="xMidYMid slice">
      <defs><g id="ven_d" transform="translate(0 -36)"><g id="ven_c"><g id="ven_b"><path d="M0-5v5h3z" fill="#fff" transform="rotate(18 0 -5)" id="ven_a"/><use xlink:href="#ven_ven_a" transform="scale(-1 1)"/></g><use xlink:href="#ven_ven_b" transform="rotate(72)"/></g><use xlink:href="#ven_ven_b" transform="rotate(-72)"/><use xlink:href="#ven_ven_c" transform="rotate(144)"/></g></defs><g style="display:inline;opacity:1"><path style="fill:#cf142b;stroke-width:1" d="M0 0h180v120H0Z"/><path d="M0 80h180V0H0Z" style="fill:#00247d;stroke-width:1"/><path style="fill:#fc0;stroke-width:1" d="M0 0h180v40H0Z"/><g transform="translate(0 .242)"><use xlink:href="#ven_ven_d" transform="rotate(-70 105.507 -23.474) scale(1.0384)" width="100%" height="100%" style="stroke-width:.96302092"/><use xlink:href="#ven_ven_d" transform="rotate(-45.934 147.37 -62.402) scale(1.0384)" width="100%" height="100%" style="stroke-width:.96302092"/><use xlink:href="#ven_ven_d" transform="rotate(-30 205.59 -127.04) scale(1.0384)" width="100%" height="100%" style="stroke-width:.96302092"/><use xlink:href="#ven_ven_d" transform="rotate(-10 537.7 -472.587) scale(1.0384)" width="100%" height="100%" style="stroke-width:.96302092"/></g><g transform="matrix(-1 0 0 1 180.051 .242)" style="display:inline;opacity:1"><use xlink:href="#ven_ven_d" transform="rotate(-70 105.507 -23.474) scale(1.0384)" width="100%" height="100%" style="stroke-width:.96302092"/><use xlink:href="#ven_ven_d" transform="rotate(-45.934 147.37 -62.402) scale(1.0384)" width="100%" height="100%" style="stroke-width:.96302092"/><use xlink:href="#ven_ven_d" transform="rotate(-30 205.59 -127.04) scale(1.0384)" width="100%" height="100%" style="stroke-width:.96302092"/><use xlink:href="#ven_ven_d" transform="rotate(-10 537.7 -472.587) scale(1.0384)" width="100%" height="100%" style="stroke-width:.96302092"/></g></g>
    </svg></g>
  <rect x="0" y="126" width="200" height="74" fill="rgba(8,12,24,0.8)"/>
  <rect x="0" y="126" width="200" height="2.5" fill="#d4af37"/>
  <text x="100" y="160" text-anchor="middle" font-family="Arial, Helvetica, sans-serif" font-size="30" font-weight="bold" fill="#d4af37">VEN</text>
  <text x="100" y="185" text-anchor="middle" font-family="Arial, Helvetica, sans-serif" font-size="15" font-weight="600" fill="#ffffff">2ª Divisão</text>
</svg>