<?xml version="1.0" encoding="utf-8"?>
<!-- Generator: Adobe Illustrator 12.0.0, SVG Export Plug-In  -->
<!DOCTYPE svg PUBLIC "-//W3C//DTD SVG 1.1//EN" "http://www.w3.org/Graphics/SVG/1.1/DTD/svg11.dtd" [
	<!ENTITY ns_flows "http://ns.adobe.com/Flows/1.0/">
	<!ENTITY ns_svg "http://www.w3.org/2000/svg">
	<!ENTITY ns_xlink "http://www.w3.org/1999/xlink">
]>
<svg  version="1.1" xmlns="&ns_svg;" xmlns:xlink="&ns_xlink;" xmlns:a="http://ns.adobe.com/AdobeSVGViewerExtensions/3.0/"
	 width="193" height="193" viewBox="0 0 193 193" enable-background="new 0 0 193 193" xml:space="preserve">
<defs>
</defs>
<polygon opacity="0" fill-rule="evenodd" clip-rule="evenodd" fill="#FFFFFF" points="0,0 192.7558594,0 192.7558594,192.7558594 
	0,192.7558594 0,0 "/>
<path fill-rule="evenodd" clip-rule="evenodd" fill="#13007C" d="M188.1503906,142.2050781
	c-8.3583984-3.96875-25.21875-9.1210938-40.0029297-11.7695313c1.1376953-0.9511719,2.2226563-1.90625,3.2822266-2.8613281
	c4.3300781,3.2128906,10.7070313-0.734375,15.0009766-5.2910156l0.4521484-0.4804688l-0.6376953,0.1679688
	c-5.9150391,1.5488281-7.6679688,1.2148438-9.1289063,0.0722656c1.4726563-1.5605469,2.8583984-3.1347656,4.1513672-4.7304688
	c4.6464844,2.6269531,10.5087891-1.984375,14.2529297-6.9609375l0.3974609-0.5292969l-0.6162109,0.2363281
	c-6.1054688,2.3496094-7.7167969,2.0273438-9.3955078,0.8652344c1.2578125-1.9414063,2.4033203-3.9277344,3.453125-5.9628906
	c5.1259766,1.7363281,9.9667969-4.015625,12.6289063-9.6977539l0.2792969-0.5981445l-0.5546875,0.3579102
	c-5.6015625,3.621582-7.1982422,3.5708008-9.1289063,2.730957c0.7080078-1.8442383,1.3466797-3.7358398,1.9287109-5.6772461
	c5.1923828,0.6269531,8.9453125-5.7182617,10.6376953-11.6455078l0.1796875-0.6352539l-0.4892578,0.4423828
	c-4.7998047,4.3310547-6.4365234,4.6523438-8.3896484,4.1938477c0.3632813-1.7255859,0.6826172-3.5004883,0.9746094-5.3134766
	c5.4960938,0.0864258,8.2451172-6.9848633,8.9248047-13.2700195l0.0712891-0.6567383l-0.4091797,0.519043
	c-3.9970703,5.0834961-5.5546875,5.6767578-7.5556641,5.5561523c0.1523438-1.465332,0.2871094-2.9633789,0.4082031-4.487793
	c5.4423828-0.2558594,7.8046875-7.425293,8.1582031-13.7099609l0.0371094-0.6591797l-0.3798828,0.5395508
	c-3.7734375,5.3422852-5.2900391,5.9702148-7.3291016,5.9375c0.0693359-1.5698242,0.1298828-3.1625977,0.1767578-4.793457
	c5.3955078-0.5874023,7.3417969-7.8608398,7.3417969-14.1430664v-0.6611328l-0.3505859,0.5605469
	c-3.3896484,5.4228516-4.8798828,6.2241211-6.8496094,6.3330078c0.0097656-1.2724609,0.015625-2.559082,0.0175781-3.8681641
	c2.6650391-3.1049805,3.7558594-6.1977539,3.7558594-9.0498047c0-3.6933594-4.7197266-10.4912109-4.7197266-10.4912109
	s-4.0009766,7.7641602-4.0009766,10.7138672c0,3.046875,1.1699219,5.9555664,3.4589844,8.7729492
	c0,0.1499023,0.0039063,0.3125,0.0039063,0.4614258c0,1.1459961-0.0068359,2.2675781-0.0136719,3.3837891
	c-2.46875-0.4560547-5.9306641-2.9526367-6.5878906-6.5683594l-0.3759766,0.0341797
	c0,9.3789063,3.3193359,13.9277344,6.8378906,14.5102539c-0.0410156,1.5717773-0.0917969,3.1162109-0.1552734,4.6269531
	c-2.4287109-0.6469727-5.6582031-3.3173828-6.1035156-6.9106445l-0.3779297,0.0126953
	c-0.5283203,9.3691406,2.5322266,14.0981445,6.0146484,14.8735352c-0.1123047,1.4790039-0.2412109,2.9282227-0.3828125,4.3491211
	c-2.4072266-0.7197266-5.5771484-3.5732422-5.8417969-7.2387695l-0.3779297-0.0068359
	c-1.0058594,9.3022461,1.7880859,14.1806641,5.2128906,15.1538086c-0.2724609,1.7250977-0.5771484,3.4047852-0.9140625,5.0454102
	c-2.2529297-1.1064453-4.9160156-4.480957-4.5546875-8.1494141l-0.3710938-0.0703125
	c-2.6757813,9.3730469-0.4707031,14.7060547,2.9804688,15.9848633c-0.5449219,1.8203125-1.1435547,3.590332-1.8027344,5.3188477
	c-1.9990234-1.5244141-3.9697266-5.1904297-3.0488281-8.668457l-0.3554688-0.1289063
	c-4.0224609,8.5844727-2.8828125,14.1420898,0.1289063,16.1049805c-0.9970703,1.9179688-2.078125,3.7890625-3.2685547,5.6230469
	c-1.6787109-1.8710938-2.9091797-5.9121094-1.2734375-9.171875l-0.3212891-0.1992188
	c-5.7275391,7.6132813-5.7216797,13.3027344-3.140625,15.8242188c-1.2597656,1.5351563-2.6044922,3.0507813-4.0361328,4.5546875
	c-1.59375-1.921875-2.5439453-6.3105469-0.4648438-9.5117188l-0.2958984-0.234375
	c-6.4511719,6.84375-7.1455078,12.4433594-4.9638672,15.2734375c-1.3261719,1.1855469-2.7128906,2.3710938-4.1621094,3.5585938
	c-2.2910156-0.3789063-4.5185547-0.6933594-6.640625-0.9257813c22.9003906-26.4570313,31.8447266-63.1875,23.2128906-103.0258789
	l-0.0234375-0.1157227L162.6025391,26c-8.5546875-2.1391602-40.1962891-6.0678711-66.2246094-6.0678711
	S38.7075195,23.8608398,30.1523438,26l-0.1147461,0.0283203l-0.0244141,0.1157227
	c-8.6313477,39.8383789,0.3125,76.5688477,23.2138672,103.0258789c-2.1230469,0.2324219-4.3496094,0.546875-6.6411133,0.9257813
	c-1.449707-1.1855469-2.8364258-2.3730469-4.1616211-3.5585938c2.1816406-2.8300781,1.4873047-8.4296875-4.9643555-15.2734375
	l-0.2963867,0.234375c2.0800781,3.2011719,1.1293945,7.5898438-0.4643555,9.5136719
	c-1.4321289-1.5039063-2.7763672-3.0214844-4.0356445-4.5546875c2.5810547-2.5234375,2.5869141-8.2128906-3.1416016-15.8261719
	l-0.3203125,0.1992188c1.6352539,3.2597656,0.4047852,7.3007813-1.2734375,9.171875
	c-1.1914063-1.8339844-2.2719727-3.7050781-3.2700195-5.6230469c3.012207-1.9628906,4.152832-7.519043,0.1298828-16.1049805
	l-0.3554688,0.1289063c0.9199219,3.4780273-1.0498047,7.1459961-3.0498047,8.668457
	c-0.6577148-1.7270508-1.2568359-3.4985352-1.8017578-5.3173828c3.4501953-1.2788086,5.65625-6.6118164,2.9804688-15.9863281
	l-0.3710938,0.0703125c0.3618164,3.668457-2.3012695,7.043457-4.5556641,8.1499023
	c-0.3364258-1.6401367-0.640625-3.3208008-0.9130859-5.0458984c3.4238281-0.9731445,6.2182617-5.8515625,5.2124023-15.1538086
	l-0.3769531,0.0068359c-0.2641602,3.6655273-3.4360352,6.5200195-5.8417969,7.2387695
	c-0.1435547-1.4199219-0.2714844-2.8701172-0.3842773-4.3491211c3.4824219-0.7753906,6.543457-5.5043945,6.015625-14.8735352
	l-0.3774414-0.0126953c-0.4458008,3.5942383-3.6757813,6.2641602-6.1049805,6.9106445
	c-0.0620117-1.5107422-0.1132813-3.0551758-0.1547852-4.6264648c3.519043-0.5820313,6.8378906-5.1318359,6.8378906-14.5107422
	l-0.3759766-0.0341797c-0.6567383,3.6157227-4.1181641,6.1123047-6.5874023,6.5683594
	c-0.0078125-1.1162109-0.0136719-2.237793-0.0136719-3.3837891c0-0.1489258,0.0039063-0.3115234,0.0039063-0.4614258
	c2.2895508-2.8173828,3.4580078-5.7260742,3.4580078-8.7729492c0-2.949707-4-10.7138672-4-10.7138672
	S9.3125,29.5717773,9.3125,33.2651367c0,2.8520508,1.0898438,5.9448242,3.7563477,9.0498047
	c0.0009766,1.309082,0.0073242,2.5957031,0.0180664,3.8681641c-1.9702148-0.1088867-3.4604492-0.909668-6.8505859-6.3330078
	l-0.3500977-0.5605469v0.6611328c0,6.2822266,1.9472656,13.5556641,7.3413086,14.1430664
	c0.0463867,1.6308594,0.1079102,3.2236328,0.1772461,4.793457c-2.0385742,0.0327148-3.5561523-0.5952148-7.3291016-5.9375
	l-0.3813477-0.5395508l0.0375977,0.6591797c0.3540039,6.2851563,2.7163086,13.4541016,8.1586914,13.7099609
	c0.1201172,1.5244141,0.2558594,3.0224609,0.4086914,4.487793c-2.0014648,0.1206055-3.5600586-0.4726563-7.5566406-5.5561523
	l-0.4086914-0.519043l0.0708008,0.6567383c0.6806641,6.2851563,3.4287109,13.3574219,8.9257813,13.2700195
	c0.2915039,1.8129883,0.6113281,3.5878906,0.9731445,5.3134766c-1.9516602,0.4584961-3.5883789,0.137207-8.3891602-4.1938477
	l-0.4897461-0.4423828l0.1811523,0.6352539c1.6918945,5.9272461,5.4453125,12.2724609,10.637207,11.6469727
	c0.581543,1.9399414,1.2211914,3.831543,1.9277344,5.6757813c-1.9296875,0.8398438-3.5258789,0.890625-9.1289063-2.730957
	l-0.5551758-0.3579102l0.2807617,0.5981445c2.6616211,5.6821289,7.5029297,11.4321289,12.6289063,9.6977539
	c1.0488281,2.0351563,2.1943359,4.0214844,3.4526367,5.9628906c-1.6787109,1.1621094-3.2895508,1.484375-9.3945313-0.8652344
	l-0.6162109-0.2363281l0.3969727,0.5292969c3.7451172,4.9765625,9.605957,9.5878906,14.2529297,6.9609375
	c1.293457,1.5957031,2.6782227,3.1699219,4.1513672,4.7304688c-1.4609375,1.1425781-3.2148438,1.4765625-9.1289063-0.0722656
	l-0.6376953-0.1679688l0.4526367,0.4804688c4.2944336,4.5566406,10.6713867,8.5039063,15,5.2910156
	c1.0600586,0.9550781,2.1450195,1.9101563,3.2832031,2.8613281c-14.7851563,2.6484375-31.6455078,7.8007813-40.003418,11.7695313
	l-0.2851563,0.1367188l14.9882813,11.1113281l0.0986328-0.0371094c8.7558594-3.5039063,25.7519531-8.0371094,37.7944336-10.0585938
	c0.6894531,0.8515625,1.3637695,1.7070313,2.0219727,2.5546875c-5.7900391,0.890625-12.8808594,2.1699219-18.2202148,3.8632813
	l-0.2973633,0.09375l11.7949219,11.7929688l0.1098633-0.0332031c3.8378906-1.2089844,9.9897461-2.1269531,15.8364258-2.7851563
	c0.6044922,0.9160156,1.0693359,1.6386719,1.3706055,2.1113281c-0.4301758,0.0546875-0.8515625,0.1132813-1.2558594,0.1796875
	l-0.2744141,0.046875l7.7783203,12.9628906l0.1108398-0.0019531c0.0830078-0.0039063,8.3764648-0.25,12.6132813,0
	l0.2670898,0.0136719l-3.9018555-13.5234375l-0.8300781-0.0253906c-2.1401367-0.0722656-7.8959961-0.2675781-12.8276367,0.1679688
	c-0.0610352-0.0976563-0.5424805-0.8652344-1.3603516-2.1171875c7.3310547-0.7753906,13.7548828-1.1347656,13.8745117-1.140625
	l0.2226563-0.0136719l-0.0483398-0.2167969c-0.4277344-1.9453125-0.7441406-3.1445313-0.9702148-3.8847656
	c0.7470703,0.4179688,1.5014648,0.8261719,2.262207,1.2285156l10.7192383,35.2910156l0.1806641-0.0566406l0.1806641,0.0566406
	l10.71875-35.2910156c0.7607422-0.4023438,1.515625-0.8105469,2.2626953-1.2285156
	c-0.2265625,0.7421875-0.5429688,1.9394531-0.9707031,3.8847656l-0.0478516,0.2167969l0.2226563,0.0136719
	c0.1201172,0.0058594,6.5429688,0.3652344,13.8740234,1.140625c-0.8173828,1.2519531-1.2988281,2.0195313-1.3603516,2.1171875
	c-4.9316406-0.4355469-10.6875-0.2402344-12.828125-0.1679688l-0.8300781,0.0253906l-3.9013672,13.5234375l0.2685547-0.0136719
	c4.2353516-0.25,12.5292969-0.0039063,12.6123047,0l0.1113281,0.0019531l7.7773438-12.9628906l-0.2734375-0.046875
	c-0.4042969-0.0664063-0.8261719-0.125-1.2568359-0.1796875c0.3017578-0.4726563,0.7666016-1.1953125,1.3701172-2.1113281
	c5.8476563,0.6582031,11.9990234,1.5761719,15.8369141,2.7851563l0.109375,0.0332031l11.7958984-11.7929688l-0.296875-0.09375
	c-5.3398438-1.6933594-12.4316406-2.9726563-18.2216797-3.8632813c0.6591797-0.8476563,1.3339844-1.703125,2.0224609-2.5546875
	c12.0429688,2.0214844,29.0380859,6.5546875,37.7939453,10.0585938l0.0996094,0.0371094l14.9882813-11.1113281
	L188.1503906,142.2050781L188.1503906,142.2050781z M66.3510742,144.8886719
	c-1.456543,0.1992188-3.3222656,0.4550781-5.418457,0.7636719c-0.6547852-0.8515625-1.3261719-1.7089844-2.0136719-2.5703125
	c3.1245117-0.4804688,5.8388672-0.7617188,7.8789063-0.7753906c0.8769531,0.7109375,1.75,1.4277344,2.6538086,2.1171875
	L66.3510742,144.8886719L66.3510742,144.8886719z M131.8242188,145.6523438
	c-2.0976563-0.3085938-3.9628906-0.5644531-5.4189453-0.7636719l-3.1005859-0.4648438
	c0.9042969-0.6894531,1.7763672-1.40625,2.6533203-2.1171875c2.0400391,0.0136719,4.7539063,0.2949219,7.8789063,0.7753906
	C133.1484375,143.9433594,132.4775391,144.8007813,131.8242188,145.6523438L131.8242188,145.6523438z"/>
<path fill-rule="evenodd" clip-rule="evenodd" fill="#FFFFFF" d="M32.6411133,28.5522461
	c-1.8588867,9.1220703-2.8344727,18.2094727-2.8344727,27.0361328c0,33.9868164,13.7685547,63.9174805,38.7670898,84.2827148
	c4.1894531,3.40625,23.9282227,15.8945313,27.8041992,17.5371094c3.8720703-1.6386719,23.6855469-14.1894531,27.7402344-17.4863281
	c25.0634766-20.4160156,38.8310547-50.3481445,38.8310547-84.3334961c0-8.8271484-0.9755859-17.9150391-2.8349609-27.0361328
	c-10.2548828-2.109375-39.9980469-5.5888672-63.7363281-5.5888672
	C72.6386719,22.9633789,42.8964844,26.4428711,32.6411133,28.5522461L32.6411133,28.5522461z"/>
<path fill-rule="evenodd" clip-rule="evenodd" fill="#13007C" d="M112.734375,69.5039063
	c7.1982422,7.1992188,7.1982422,7.1992188,7.1982422,7.1992188c0,10.2304688,0,10.2304688,0,10.2304688
	c-19.5126953,0-19.5126953,0-19.5126953,0c0,3.0307617,0,3.0307617,0,3.0307617c-7.3881836,0-7.3881836,0-7.3881836,0
	c0-8.7143555,0-8.7143555,0-8.7143555c19.7026367,0,19.7026367,0,19.7026367,0
	C112.734375,69.5039063,112.734375,69.5039063,112.734375,69.5039063L112.734375,69.5039063z"/>
<path fill-rule="evenodd" clip-rule="evenodd" fill="#13007C" d="M105.15625,95.269043v14.7758789c0,0,0,0-52.4770508,0
	c0,0,0,0,6.6308594,6.6308594c0,0,0,0,53.0454102,0c0,0,0,0,0-14.2089844
	C112.3554688,102.4667969,105.5791016,95.6918945,105.15625,95.269043L105.15625,95.269043z"/>
<path fill-rule="evenodd" clip-rule="evenodd" fill="#13007C" d="M92.8422852,55.4853516c0,0,0,0.0004883,0,0.0625
	c0,0,0,6.9038086,0,9.0307617c0,0,0,0,7.5776367,0c0,0,0,0,0-2.4628906c0,0,0,0,18.1865234,0v-6.5678711
	C118.6064453,55.5478516,96.0849609,55.5087891,92.8422852,55.4853516L92.8422852,55.4853516z"/>
<path fill-rule="evenodd" clip-rule="evenodd" fill="#13007C" d="M51.5429688,55.4853516
	c0.5,0.5,7.6723633,7.6723633,7.6723633,7.6723633c0-3.6269531,0-7.6723633,0-7.6723633H51.5429688L51.5429688,55.4853516z"/>
<path fill-rule="evenodd" clip-rule="evenodd" fill="#13007C" d="M147.4023438,41.4663086c0,0,0,0,0,0.0009766v27.847168
	c-0.7363281,0-4.3398438,0-21.9755859,0c0,0,0,0,6.6308594,7.1992188c0,0,0,0,22.9228516,0c0,0,0,0,0-28.0380859
	C154.9804688,48.4755859,154.9804688,48.4755859,147.4023438,41.4663086L147.4023438,41.4663086z"/>
<path fill-rule="evenodd" clip-rule="evenodd" fill="#00A0C6" d="M50.0273438,40.3291016c0,0,0,0,0,10.2304688c0,0,0,0,13.6401367,0
	c0,0,0,0,0,43.5727539c0,0,0,0-14.3979492,0c0,0,0,0,0,10.2290039c0,0,0,0,51.5292969,0c0,0,0,0,0-10.6079102c0,0,0,0-11.7456055,0
	c0,0,0-0.0161133,0-18.565918h18.9448242v-6.8198242H89.0532227c0-4.8339844,0-10.578125,0-17.4291992c0,0,0,0,34.8579102,0
	c0,0,0,0,0,12.8823242c0,0,0,0,18.5654297,0c0,0,0,0,0-23.4916992
	C142.4765625,40.3291016,142.4765625,40.3291016,50.0273438,40.3291016L50.0273438,40.3291016z"/>
<path fill-rule="evenodd" clip-rule="evenodd" fill="#13007C" d="M31.8793945,8.109375l6.1362305-0.7373047l0.2177734,1.8110352
	L37.7734375,9.237793c-0.3261719,0.0390625-0.5258789,0.0913086-0.6010742,0.1557617
	c-0.074707,0.0639648-0.1049805,0.1572266-0.090332,0.2788086c0.0195313,0.1616211,0.1430664,0.3916016,0.3691406,0.690918
	l1.9648438,2.6220703l1.4365234-3.1533203c0.1303711-0.2729492,0.2001953-0.4262695,0.2094727-0.4584961
	c0.0161133-0.0727539,0.0205078-0.1435547,0.0126953-0.2133789c-0.0136719-0.1079102-0.0556641-0.1826172-0.1274414-0.2255859
	c-0.0727539-0.0429688-0.2338867-0.0488281-0.484375-0.019043l-0.6308594,0.0751953l-0.2167969-1.8100586L44.5048828,6.59375
	l0.2177734,1.8100586c-0.4238281,0.0576172-0.7177734,0.1469727-0.8813477,0.2666016
	c-0.1625977,0.1206055-0.3432617,0.3847656-0.5415039,0.7929688l-2.6381836,5.4414063l0.2783203,2.3208008
	c0.0493164,0.4101563,0.1054688,0.6728516,0.1708984,0.7885742c0.0639648,0.1152344,0.1611328,0.1953125,0.2900391,0.2392578
	c0.1289063,0.0449219,0.371582,0.0454102,0.7275391,0.0024414l0.4311523-0.0517578l0.2177734,1.8100586l-5.9956055,0.7202148
	l-0.2177734-1.8110352l0.3227539-0.0385742c0.4165039-0.0493164,0.6791992-0.1108398,0.7895508-0.184082
	c0.1088867-0.0732422,0.1860352-0.1835938,0.230957-0.3310547c0.0444336-0.1464844,0.0415039-0.4316406-0.0097656-0.8540039
	l-0.2431641-2.0317383l-3.9238281-4.871582c-0.3120117-0.378418-0.5712891-0.609375-0.777832-0.6914063
	c-0.1518555-0.0507813-0.4370117-0.0517578-0.855957-0.0014648L31.8793945,8.109375L31.8793945,8.109375z"/>
<path fill-rule="evenodd" clip-rule="evenodd" fill="#13007C" d="M55.3085938,7.8154297
	c0.5151367,0.2978516,0.9501953,0.7827148,1.3066406,1.4555664c0.3554688,0.6738281,0.5898438,1.5258789,0.7006836,2.5585938
	c0.1572266,1.46875-0.0444336,2.6767578-0.6049805,3.6245117c-0.4770508,0.793457-1.1762695,1.2402344-2.0991211,1.3388672
	c-0.9174805,0.0981445-1.6958008-0.1894531-2.3364258-0.8637695c-0.7338867-0.7895508-1.1801758-1.921875-1.3383789-3.3959961
	c-0.1586914-1.4746094,0.059082-2.7158203,0.6508789-3.7236328c0.4750977-0.7993164,1.1811523-1.25,2.1171875-1.3510742
	C54.2592773,7.3999023,54.7944336,7.5185547,55.3085938,7.8154297L55.3085938,7.8154297z M48.8378906,7.8012695
	c-1.0913086,1.3950195-1.53125,3.0854492-1.3183594,5.0703125c0.2294922,2.1342773,1.112793,3.7641602,2.6518555,4.8891602
	c1.2724609,0.9335938,2.815918,1.3022461,4.6293945,1.1079102c1.3779297-0.1474609,2.5224609-0.5522461,3.4350586-1.2128906
	c0.9121094-0.6616211,1.5908203-1.5351563,2.0356445-2.6210938c0.4443359-1.0864258,0.5957031-2.2919922,0.4536133-3.6171875
	c-0.2114258-1.972168-0.9902344-3.5224609-2.3334961-4.6499023c-1.34375-1.1269531-2.9916992-1.5864258-4.9418945-1.3769531
	C51.4672852,5.6030273,49.9301758,6.4072266,48.8378906,7.8012695L48.8378906,7.8012695z"/>
<path fill-rule="evenodd" clip-rule="evenodd" fill="#13007C" d="M63.090332,4.590332l6.0200195-0.4799805l0.1450195,1.8173828
	l-0.3974609,0.0322266c-0.3759766,0.0302734-0.6049805,0.0698242-0.6875,0.1201172
	c-0.1362305,0.0786133-0.2304688,0.1831055-0.2817383,0.3120117c-0.0517578,0.128418-0.0644531,0.3623047-0.0371094,0.7016602
	l0.2744141,3.4399414l3.5546875-4.0498047c0.1557617-0.1787109,0.2485352-0.2983398,0.277832-0.359375
	c0.0297852-0.0615234,0.043457-0.112793,0.0395508-0.1557617c-0.0068359-0.0859375-0.0444336-0.1479492-0.1142578-0.1855469
	c-0.0683594-0.0375977-0.2426758-0.0454102-0.5209961-0.0234375l-0.4785156,0.0385742l-0.1450195-1.8183594l5.5708008-0.4438477
	l0.1450195,1.8173828l-0.1879883,0.0151367c-0.2617188,0.0209961-0.4418945,0.0493164-0.5395508,0.0854492
	c-0.0976563,0.0356445-0.2143555,0.1064453-0.3500977,0.2119141c-0.1367188,0.1049805-0.3115234,0.2719727-0.5249023,0.503418
	l-2.7636719,2.965332l3.9672852,4.8017578c0.3388672,0.4121094,0.5800781,0.6542969,0.7231445,0.7246094
	c0.2021484,0.0966797,0.4755859,0.1308594,0.8237305,0.1035156l0.2426758-0.0195313L77.9907227,16.5625l-6.2080078,0.4956055
	l-0.1450195-1.8178711l0.2416992-0.019043c0.453125-0.0361328,0.7260742-0.0791016,0.8193359-0.1308594
	c0.0932617-0.0512695,0.1376953-0.1103516,0.1318359-0.1791992c-0.0058594-0.0751953-0.1142578-0.2436523-0.3232422-0.5087891
	l-2.4379883-3.0991211l-1.7333984,1.8623047l0.1044922,1.3105469c0.0253906,0.3222656,0.0727539,0.5429688,0.1411133,0.6621094
	s0.1586914,0.2011719,0.2705078,0.2451172c0.1118164,0.0444336,0.3310547,0.0527344,0.6582031,0.0273438l0.4985352-0.0400391
	l0.1450195,1.8173828l-6.0200195,0.4804688l-0.1455078-1.8173828l0.4521484-0.0366211
	c0.3510742-0.0283203,0.5839844-0.0761719,0.6987305-0.1450195s0.1918945-0.1708984,0.2319336-0.3056641
	c0.0410156-0.1098633,0.0463867-0.3676758,0.0141602-0.7729492L64.815918,7.4584961
	c-0.03125-0.3857422-0.0786133-0.6425781-0.1420898-0.769043s-0.1577148-0.21875-0.2817383-0.2739258
	c-0.125-0.0566406-0.3413086-0.0727539-0.6484375-0.0483398l-0.5083008,0.0410156L63.090332,4.590332L63.090332,4.590332z"/>
<path fill-rule="evenodd" clip-rule="evenodd" fill="#13007C" d="M87.9448242,5.434082
	c0.4912109,0.3339844,0.8911133,0.8486328,1.1972656,1.5454102c0.3061523,0.6977539,0.4780273,1.5649414,0.5141602,2.6025391
	c0.0512695,1.4765625-0.2368164,2.6669922-0.8642578,3.5712891c-0.5327148,0.7568359-1.2631836,1.1523438-2.1904297,1.1845703
	c-0.921875,0.0322266-1.6777344-0.3115234-2.2675781-1.0297852c-0.6757813-0.8408203-1.0395508-2.0014648-1.0908203-3.484375
	c-0.0517578-1.4819336,0.2548828-2.7045898,0.9179688-3.6665039c0.5317383-0.7636719,1.2685547-1.1616211,2.2089844-1.1943359
	C86.9277344,4.9433594,87.4526367,5.1005859,87.9448242,5.434082L87.9448242,5.434082z M81.4916992,4.953125
	c-1.1899414,1.3129883-1.75,2.9667969-1.6811523,4.9619141c0.074707,2.1455078,0.8383789,3.8349609,2.2924805,5.0678711
	c1.2016602,1.0224609,2.7143555,1.5019531,4.5375977,1.4384766c1.3837891-0.0483398,2.5556641-0.3686523,3.5131836-0.9619141
	c0.9575195-0.59375,1.6977539-1.4165039,2.2192383-2.4682617c0.5214844-1.0507813,0.7592773-2.2426758,0.7133789-3.5742188
	c-0.0683594-1.9824219-0.7333984-3.5844727-1.9921875-4.8056641c-1.2587891-1.2207031-2.8691406-1.7983398-4.8300781-1.7304688
	C84.2724609,2.949707,82.6816406,3.6411133,81.4916992,4.953125L81.4916992,4.953125z"/>
<path fill-rule="evenodd" clip-rule="evenodd" fill="#13007C" d="M96.3574219,2.8344727l6.0371094,0.1337891l-0.0419922,1.8227539
	l-0.5585938-0.0117188c-0.3056641-0.0068359-0.5136719,0.0214844-0.6269531,0.0834961
	c-0.1132813,0.0634766-0.1953125,0.1547852-0.2441406,0.2753906c-0.0488281,0.1201172-0.078125,0.3828125-0.0869141,0.7861328
	l-0.0507813,2.2670898l4.5224609,0.1000977l0.0546875-2.4350586c0.0058594-0.2978516-0.0078125-0.5004883-0.0429688-0.6074219
	c-0.0458984-0.1499023-0.1230469-0.2543945-0.2294922-0.3129883s-0.3505859-0.0917969-0.734375-0.1005859l-0.4628906-0.0097656
	l0.0400391-1.8232422l6.0371094,0.1337891l-0.0400391,1.8227539l-0.5058594-0.0112305
	c-0.3457031-0.0068359-0.5751953,0.0175781-0.6875,0.0742188c-0.1142578,0.0571289-0.1953125,0.1425781-0.2412109,0.2583008
	c-0.0458984,0.1147461-0.0742188,0.3876953-0.0830078,0.8193359l-0.1582031,7.0952148
	c-0.0087891,0.4384766,0.0136719,0.722168,0.0664063,0.8520508c0.0537109,0.1289063,0.1367188,0.2216797,0.2519531,0.2773438
	c0.1142578,0.0561523,0.3769531,0.0878906,0.7900391,0.0976563l0.3574219,0.0073242l-0.0400391,1.8232422l-6.0380859-0.1337891
	l0.0400391-1.8232422l0.3984375,0.0087891c0.3642578,0.0083008,0.6142578-0.0170898,0.7470703-0.0771484
	c0.1347656-0.0600586,0.2285156-0.1484375,0.2802734-0.2666016s0.0830078-0.3959961,0.0927734-0.8359375l0.0615234-2.7734375
	l-4.5224609-0.1000977l-0.0605469,2.7734375c-0.0097656,0.4389648,0.0029297,0.7124023,0.0371094,0.8193359
	c0.0537109,0.1586914,0.140625,0.2636719,0.2636719,0.3168945s0.3710938,0.0834961,0.7441406,0.0917969l0.4189453,0.0087891
	l-0.0400391,1.8232422l-6.0366211-0.1337891l0.0395508-1.8227539l0.4160156,0.0087891
	c0.340332,0.0073242,0.5800781-0.0180664,0.7192383-0.0776367C97.3813477,14,97.4780273,13.9145508,97.53125,13.8022461
	c0.0512695-0.1108398,0.0825195-0.3579102,0.0913086-0.7392578l0.1567383-7.1147461
	c0.0107422-0.4438477-0.0087891-0.7338867-0.0561523-0.8701172c-0.0473633-0.1352539-0.1240234-0.2353516-0.2290039-0.300293
	c-0.1054688-0.0649414-0.3125-0.1005859-0.6201172-0.1083984L96.315918,4.6577148L96.3574219,2.8344727L96.3574219,2.8344727z"/>
<path fill-rule="evenodd" clip-rule="evenodd" fill="#13007C" d="M118.4414063,7.1992188l0.9394531,3.6396484l-2.4453125-0.1748047
	L118.4414063,7.1992188L118.4414063,7.1992188z M113.2509766,13.6772461
	c-0.1347656,0.2988281-0.2529297,0.5009766-0.3525391,0.6069336c-0.0996094,0.1064453-0.2236328,0.1831055-0.3710938,0.2285156
	c-0.1503906,0.0458984-0.3779297,0.0576172-0.6875,0.0356445l-0.1298828,1.8193359l4.7949219,0.3432617l0.1308594-1.8193359
	c-0.4560547-0.0327148-0.7333984-0.0649414-0.8310547-0.0966797c-0.1474609-0.0483398-0.2529297-0.1157227-0.3164063-0.2021484
	c-0.0625-0.0859375-0.0898438-0.1782227-0.0830078-0.2788086c0.0058594-0.0874023,0.0664063-0.269043,0.1806641-0.543457
	l0.5595703-1.2875977l3.7539063,0.2685547l0.2900391,1.2182617c0.0869141,0.3574219,0.1269531,0.5927734,0.1191406,0.7045898
	c-0.0097656,0.1313477-0.0820313,0.2373047-0.2197266,0.3188477c-0.1367188,0.081543-0.3671875,0.1103516-0.6904297,0.0874023
	l-0.3535156-0.0166016l-0.1298828,1.8193359l5.8339844,0.4179688l0.1298828-1.8193359
	c-0.4169922-0.0292969-0.7001953-0.1118164-0.8457031-0.2475586c-0.1484375-0.1347656-0.3027344-0.4760742-0.4638672-1.0234375
	l-2.9794922-10.3603516l-2.8007813-0.2006836L113.2509766,13.6772461L113.2509766,13.6772461z"/>
<path fill-rule="evenodd" clip-rule="evenodd" fill="#13007C" d="M128.3349609,4.4526367l5.5654297,0.6132813l1.2636719,8.1098633
	l3.0429688-7.6362305l5.6875,0.625l-0.1992188,1.8125l-0.609375-0.0668945
	c-0.3330078-0.0366211-0.5693359,0.0112305-0.7109375,0.144043c-0.140625,0.1323242-0.234375,0.4008789-0.2783203,0.8046875
	l-0.8125,7.390625c-0.0351563,0.3242188-0.0429688,0.527832-0.0185547,0.6123047
	c0.0410156,0.1308594,0.1054688,0.2255859,0.1943359,0.2861328c0.1230469,0.0888672,0.2890625,0.1445313,0.4951172,0.1674805
	l0.7041016,0.0776367l-0.2001953,1.8120117l-5.9296875-0.6523438l0.1982422-1.8125l0.4599609,0.050293
	c0.3378906,0.0371094,0.5683594,0.0351563,0.6943359-0.0087891c0.1240234-0.0429688,0.2197266-0.1191406,0.2871094-0.2285156
	c0.0654297-0.1088867,0.1152344-0.3198242,0.1494141-0.6313477l0.8818359-8.0209961l-4.1777344,10.4858398l-1.6943359-0.1865234
	l-1.7451172-10.7871094l-0.8720703,7.9272461c-0.0195313,0.1811523-0.0048828,0.324707,0.0458984,0.4311523
	c0.0498047,0.1069336,0.1298828,0.1923828,0.2382813,0.2578125c0.1064453,0.0649414,0.2841797,0.1118164,0.5292969,0.1381836
	l0.5898438,0.0654297l-0.2001953,1.8120117l-5.0136719-0.5512695l0.1992188-1.8125l0.4990234,0.0551758
	c0.3115234,0.0336914,0.5292969,0.027832,0.6503906-0.0180664c0.1230469-0.0463867,0.2197266-0.1298828,0.2910156-0.2514648
	c0.0683594-0.1210938,0.1240234-0.3530273,0.1601563-0.6958008l0.8027344-7.2963867
	c0.0371094-0.3364258,0.0400391-0.5566406,0.0078125-0.6611328c-0.0419922-0.1425781-0.1123047-0.2514648-0.2119141-0.3251953
	c-0.0986328-0.0742188-0.2617188-0.1230469-0.4863281-0.1479492l-0.6767578-0.0742188L128.3349609,4.4526367L128.3349609,4.4526367z
	"/>
<path fill-rule="evenodd" clip-rule="evenodd" fill="#13007C" d="M151.9257813,10.769043l0.7138672,3.6899414l-2.4287109-0.3251953
	L151.9257813,10.769043L151.9257813,10.769043z M146.3457031,16.9140625
	c-0.1533203,0.2900391-0.2822266,0.4848633-0.3876953,0.5849609c-0.1064453,0.0996094-0.2353516,0.1679688-0.3857422,0.2041016
	c-0.1513672,0.0366211-0.3808594,0.034668-0.6875-0.0058594l-0.2421875,1.8071289l4.7636719,0.6376953l0.2431641-1.8071289
	c-0.4521484-0.0605469-0.7285156-0.1103516-0.8232422-0.1479492c-0.1445313-0.0566406-0.2451172-0.1308594-0.3027344-0.2202148
	c-0.0576172-0.090332-0.0800781-0.1845703-0.0664063-0.2841797c0.0117188-0.0864258,0.0820313-0.2636719,0.2138672-0.5307617
	l0.6386719-1.2514648l3.7294922,0.4995117l0.2148438,1.2333984c0.0644531,0.362793,0.0898438,0.6005859,0.0751953,0.7114258
	c-0.0185547,0.1308594-0.0966797,0.2319336-0.2382813,0.3046875c-0.1425781,0.0727539-0.3740234,0.0874023-0.6943359,0.0449219
	l-0.3525391-0.0380859l-0.2421875,1.8071289l5.796875,0.7768555l0.2431641-1.8076172
	c-0.4160156-0.0556641-0.6933594-0.1552734-0.8310547-0.2993164c-0.1386719-0.144043-0.2714844-0.4941406-0.3994141-1.0507813
	l-2.3339844-10.5239258l-2.7841797-0.3730469L146.3457031,16.9140625L146.3457031,16.9140625z"/>
</svg>
